<?xml version="1.0" encoding="utf-8"?>
<!-- Generator: Adobe Illustrator 20.1.0, SVG Export Plug-In . SVG Version: 6.00 Build 0)  -->
<svg version="1.1"
	 id="Calque_1" inkscape:version="0.48.4 r9939" sodipodi:docname="logo_oscaro.svg" xmlns:cc="http://creativecommons.org/ns#" xmlns:dc="http://purl.org/dc/elements/1.1/" xmlns:inkscape="http://www.inkscape.org/namespaces/inkscape" xmlns:rdf="http://www.w3.org/1999/02/22-rdf-syntax-ns#" xmlns:sodipodi="http://sodipodi.sourceforge.net/DTD/sodipodi-0.dtd" xmlns:svg="http://www.w3.org/2000/svg"
	 xmlns="http://www.w3.org/2000/svg" xmlns:xlink="http://www.w3.org/1999/xlink" x="0px" y="0px" viewBox="0 0 188 107"
	 style="enable-background:new 0 0 188 107;" xml:space="preserve">
<style type="text/css">
	.st0{fill:#144A82;}
</style>
<sodipodi:namedview  bordercolor="#666666" borderopacity="1" gridtolerance="10" guidetolerance="10" id="namedview23" inkscape:current-layer="Calque_1" inkscape:cx="50.615133" inkscape:cy="53.5" inkscape:pageopacity="0" inkscape:pageshadow="2" inkscape:window-height="480" inkscape:window-maximized="0" inkscape:window-width="640" inkscape:window-x="75" inkscape:window-y="34" inkscape:zoom="1.6382979" objecttolerance="10" pagecolor="#ffffff" showgrid="false">
	</sodipodi:namedview>
<g id="g5">
	<path id="path7" class="st0" d="M121.4,15.1c-7.9,0-15.8,2.4-22.6,6.3C93,17.3,85.6,14.9,77.4,15c-17.9,0.1-35.3,11.8-42.4,28.1
		h1.3C43.2,30.4,59,20.7,75.8,20.7c7.2,0,13.3,1.4,18.3,3.8c-4.1,3.1-7.8,6.9-10.7,11h2.5c3.3-3.5,7.3-6.7,11.8-9.1
		c3.9,2.4,7.1,5.5,9.4,9.1h3c-1.7-4.3-4.3-8.2-7.7-11.3c5.4-2.2,11.4-3.4,18.1-3.4c18.4,0,31.6,9.7,34.5,22.5h1.1
		C153.9,26.8,139.7,15,121.4,15.1z"/>
	<path id="path9" class="st0" d="M112.2,86.3c-7.2,0-13.3-1.4-18.3-3.8c4.1-3.1,7.8-6.8,10.7-11h-2.4c-3.3,3.5-7.3,6.7-11.8,9.1
		c-3.9-2.4-7.1-5.5-9.4-9.1h-3c1.7,4.3,4.3,8.2,7.7,11.3c-5.4,2.2-11.4,3.4-18.1,3.4C49.1,86.2,36,76.5,33,63.7h-1.1
		C34.2,80.2,48.4,92,66.6,91.9c7.9-0.1,15.8-2.4,22.6-6.3c5.9,4.1,13.3,6.6,21.4,6.4c17.9-0.1,35.3-11.8,42.4-28.1h-1.3
		C144.9,76.6,129,86.3,112.2,86.3z"/>
	<path id="path11" class="st0" d="M37.6,58c-0.2,0.9-0.3,1.7-0.3,2.4c0.4,4.1,4.9,4.7,7.4,4.7c2.4,0,5.3-0.2,6.6-0.7
		c0.9-0.4,3.1-1.4,3.7-3.8c0,0,1.1-3.7,1.4-5.5c0.3-1.8-0.1-2.7-1-3.3c-1.2-0.7-6-0.9-6.8-0.9s-3.1-0.1-3.2-1.1
		c-0.2-1.1,0.4-2.5,0.8-3.3c0.5-1,2.9-0.9,2.9-0.9s2.5-0.1,2.8,0.7c0.2,0.5,0,1.6,0,1.6h5.5c0,0,0.9-2.5-0.2-4.6
		c-1.1-2-6.9-2.1-6.9-2.1s-4.2-0.1-6.7,0.8c-2.4,0.9-3.1,3.6-3.1,3.6s-1,3.6-1,3.8c0,0.3-0.5,1.9,0.2,3.1c0.9,1.7,3.6,1.9,3.6,1.9
		s4.3,0.3,6.2,0.5c1.4,0.2,1.2,1.5,1.2,1.5s-0.2,1.4-0.6,2.6c0,0-0.3,1.1-1.7,1.3c-1.3,0.2-2.4,0.2-3.8,0.1
		c-1.8-0.1-1.9-0.7-1.7-2.3L37.6,58z"/>
	<path id="path13" class="st0" d="M103.7,60.1h7.6l0.2,5.2h5.8l-1.6-24h-8.6l-11.3,24h5.9L103.7,60.1z M110.6,45.6l0.1,10.3h-5
		L110.6,45.6z"/>
	<path id="path15" class="st0" d="M149.5,52.5c0.4-1.5,1-5.6,1-5.6s0.4-2.4-1.2-4c-1-1.1-3.2-1.4-4.6-1.4c-1.2,0-11.2,0-11.2,0
		L128,65.2h5.8l1.9-7.8h4.2l2.2,7.8h5.7l-2.4-8.1c0,0,1.4-0.6,2.4-1.4C149.3,54.7,149.5,52.5,149.5,52.5z M144.4,48.6
		c0,0-0.2,2.6-1.1,3.4c-0.9,0.8-1.8,0.7-1.8,0.7h-4.6l1.3-6.2h4.5c0,0,1.2,0,1.6,0.7C144.6,47.8,144.4,48.6,144.4,48.6z"/>
	<path id="path17" class="st0" d="M20.5,41.4h-1.1c0,0-4.1-0.1-6.6,1c-3,1.2-3.7,4.5-3.7,4.5L6.7,57.8c0,0-0.6,2.3,0.1,4.1
		c1.3,3.5,7.5,3.5,7.5,3.5h1c0,0,4.1,0,6.7-1c2.9-1.2,3.7-4.5,3.7-4.5c1.4-6.1,2.3-10.9,2.3-10.9s0.6-2.3-0.1-4.1
		C26.6,41.4,20.5,41.4,20.5,41.4z M22.2,49.2l-1.9,9.1c0,0-0.2,1.2-1,1.8c-0.7,0.5-3.3,0.5-3.3,0.5h-0.7c0,0-2.1,0-2.6-0.9
		c-0.5-0.9-0.1-2.2-0.1-2.2l1.9-9.1c0,0,0.2-1.2,1-1.8c0.7-0.5,3.3-0.5,3.3-0.5h0.7c0,0,2.1,0,2.6,0.8
		C22.5,47.9,22.2,49.2,22.2,49.2z"/>
	<path id="path19" class="st0" d="M181.2,44.9c-1.3-3.5-7.5-3.5-7.5-3.5h-1.1c0,0-4.1-0.1-6.7,1c-3,1.3-3.7,4.5-3.7,4.5l-2.3,10.9
		c0,0-0.6,2.3,0.1,4.1c1.3,3.5,7.5,3.5,7.5,3.5h1c0,0,4.1,0,6.7-1c2.9-1.2,3.7-4.5,3.7-4.5c1.4-6.1,2.3-10.9,2.3-10.9
		S181.8,46.7,181.2,44.9z M175.5,49.2l-1.9,9.1c0,0-0.2,1.2-1,1.8c-0.7,0.5-3.3,0.5-3.3,0.5h-0.7c0,0-2.1,0-2.6-0.9
		s-0.1-2.2-0.1-2.2l1.9-9.1c0,0,0.2-1.2,1-1.8C169.4,46,172,46,172,46h0.7c0,0,2.1,0,2.6,0.9C175.9,47.9,175.5,49.2,175.5,49.2z"/>
	<path id="path21" class="st0" d="M88.2,48.9C88.2,48.9,88.2,48.8,88.2,48.9c0,0,0.5-2.3-0.1-4.1c-1.3-3.5-7.2-3.5-7.2-3.5h-1
		c0,0-4-0.1-6.5,1c-2.9,1.3-3.6,4.5-3.6,4.5l-2.2,10.9c0,0-0.6,2.3,0.1,4.1c1.3,3.5,7.3,3.5,7.3,3.5h1c0,0,4,0,6.5-1
		c2.8-1.2,3.7-4.5,3.7-4.5c0.3-0.8,0.4-1.6,0.5-2.3h-5.6c0,0-0.1,1.6-1.3,2.5c-0.7,0.5-3.2,0.5-3.2,0.5h-0.7c0,0-2.1,0-2.5-0.9
		c-0.4-0.9-0.1-2.2-0.1-2.2l1.8-9.1c0,0,0.2-1.2,0.9-1.8c0.7-0.5,3.2-0.5,3.2-0.5h0.7c0,0,2,0,2.4,0.8c0.4,0.7,0.3,1.7,0.2,2
		L88.2,48.9z"/>
</g>
</svg>
